<svg width="32" height="32" viewBox="0 0 32 32" fill="none" xmlns="http://www.w3.org/2000/svg">
<circle cx="16" cy="16" r="16" fill="url(#paint0_linear_378_1659)"/>
<path d="M23.5469 9.34151C22.2054 8.71984 20.7767 8.26176 19.2716 8C19.0861 8.3272 18.868 8.77437 18.7262 9.13429C17.1339 8.89434 15.5524 8.89434 13.9928 9.13429C13.8401 8.77437 13.6219 8.3272 13.4365 8C11.9314 8.26176 10.5026 8.71984 9.16113 9.34151C6.45629 13.4206 5.72554 17.4015 6.08546 21.317C7.88505 22.6585 9.6192 23.4656 11.3315 24C11.7569 23.4219 12.1277 22.8003 12.4549 22.1568C11.8332 21.9277 11.2443 21.6333 10.6881 21.2952C10.8407 21.1861 10.9825 21.0661 11.1243 20.9571C14.5381 22.5494 18.2354 22.5494 21.6056 20.9571C21.7474 21.077 21.8891 21.1861 22.0418 21.2952C21.4856 21.6333 20.8857 21.9168 20.275 22.1568C20.6022 22.8003 20.973 23.4219 21.3983 24C23.1107 23.4656 24.8557 22.6585 26.6444 21.317C27.0698 16.7689 25.9137 12.8316 23.5688 9.34151H23.5469ZM12.913 18.9175C11.8878 18.9175 11.048 17.9686 11.048 16.8016C11.048 15.6346 11.866 14.6858 12.913 14.6858C13.96 14.6858 14.7889 15.6346 14.778 16.8016C14.778 17.9577 13.96 18.9175 12.913 18.9175ZM19.7951 18.9175C18.7699 18.9175 17.93 17.9686 17.93 16.8016C17.93 15.6346 18.748 14.6858 19.7951 14.6858C20.8421 14.6858 21.671 15.6346 21.6601 16.8016C21.6601 17.9577 20.8421 18.9175 19.7951 18.9175Z" fill="white"/>
<defs>
<linearGradient id="paint0_linear_378_1659" x1="-1.06171e-07" y1="2" x2="27.5" y2="30.5" gradientUnits="userSpaceOnUse">
<stop stop-color="#5C9DFF"/>
<stop offset="1" stop-color="#D49EFF"/>
</linearGradient>
</defs>
</svg>
