<svg width="32" height="32" viewBox="0 0 32 32" fill="none" xmlns="http://www.w3.org/2000/svg">
<circle cx="16" cy="16" r="16" fill="url(#paint0_linear_614_2715)"/>
<g clip-path="url(#clip0_614_2715)">
<path d="M14.9972 7.06366C10.8518 7.52357 7.51754 10.9269 7.06696 15.066C6.52627 19.6651 9.31986 23.6203 13.2849 24.908V22.7925C13.2849 22.7925 12.9245 22.8844 12.4739 22.8844C11.2123 22.8844 10.6716 21.7807 10.5815 21.1368C10.4914 20.7689 10.3111 20.4929 10.0408 20.217C9.77043 20.125 9.68032 20.125 9.68032 20.033C9.68032 19.8491 9.95067 19.8491 10.0408 19.8491C10.5815 19.8491 11.0321 20.4929 11.2123 20.7689C11.6629 21.5047 12.2036 21.6887 12.4739 21.6887C12.8344 21.6887 13.1047 21.5967 13.2849 21.5047C13.3751 20.8609 13.6454 20.217 14.1861 19.8491C12.1134 19.3892 10.5815 18.1934 10.5815 16.1698C10.5815 15.158 11.0321 14.1462 11.6629 13.4104C11.5727 13.2264 11.4826 12.7665 11.4826 12.1226C11.4826 11.7547 11.4826 11.2028 11.753 10.6509C11.753 10.6509 13.0146 10.6509 14.2762 11.8467C14.7268 11.6627 15.3576 11.5707 15.9884 11.5707C16.6193 11.5707 17.25 11.6627 17.7908 11.8467C18.9623 10.6509 20.314 10.6509 20.314 10.6509C20.4942 11.2028 20.4942 11.7547 20.4942 12.1226C20.4942 12.8585 20.4041 13.2264 20.314 13.4104C20.9448 14.1462 21.3954 15.066 21.3954 16.1698C21.3954 18.1934 19.8634 19.3892 17.7908 19.8491C18.3314 20.309 18.6919 21.1368 18.6919 21.9646V25C22.3866 23.8042 25 20.309 25 16.2618C25 10.7429 20.4041 6.4198 14.9972 7.06366Z" fill="white"/>
</g>
<defs>
<linearGradient id="paint0_linear_614_2715" x1="-1.06171e-07" y1="2" x2="27.5" y2="30.5" gradientUnits="userSpaceOnUse">
<stop stop-color="#5C9DFF"/>
<stop offset="1" stop-color="#D49EFF"/>
</linearGradient>
<clipPath id="clip0_614_2715">
<rect width="18" height="18" fill="white" transform="translate(7 7)"/>
</clipPath>
</defs>
</svg>
