<svg width="32" height="32" viewBox="0 0 32 32" fill="none" xmlns="http://www.w3.org/2000/svg">
<circle cx="16" cy="16" r="16" fill="url(#paint0_linear_618_6434)"/>
<path d="M16.7752 15.8918C16.7752 18.5934 14.5869 20.7835 11.8877 20.7835C9.18845 20.7835 7 18.5934 7 15.8918C7 13.1902 9.18828 11 11.8877 11C14.5871 11 16.7752 13.1902 16.7752 15.8918Z" fill="white"/>
<path d="M22.1367 15.8917C22.1367 18.4346 21.0426 20.4969 19.6929 20.4969C18.3432 20.4969 17.249 18.4346 17.249 15.8917C17.249 13.3487 18.343 11.2864 19.6927 11.2864C21.0424 11.2864 22.1365 13.348 22.1365 15.8917" fill="white"/>
<path d="M24.3297 15.8917C24.3297 18.1696 23.9449 20.0173 23.4702 20.0173C22.9954 20.0173 22.6108 18.1701 22.6108 15.8917C22.6108 13.6133 22.9956 11.7661 23.4702 11.7661C23.9448 11.7661 24.3297 13.6132 24.3297 15.8917Z" fill="white"/>
<defs>
<linearGradient id="paint0_linear_618_6434" x1="-1.06171e-07" y1="2" x2="27.5" y2="30.5" gradientUnits="userSpaceOnUse">
<stop stop-color="#5C9DFF"/>
<stop offset="1" stop-color="#D49EFF"/>
</linearGradient>
</defs>
</svg>
