<svg width="32" height="32" viewBox="0 0 32 32" fill="none" xmlns="http://www.w3.org/2000/svg">
<circle cx="16" cy="16" r="16" fill="url(#paint0_linear_378_1661)"/>
<path d="M26.3636 9.89444C25.6148 10.2152 24.8103 10.432 23.9646 10.53C24.8274 10.0306 25.4892 9.23811 25.8013 8.29479C24.9942 8.75778 24.1 9.09418 23.1485 9.27452C22.3862 8.49073 21.301 8 20.0992 8C17.7925 8 15.9217 9.80861 15.9217 12.0403C15.9217 12.3559 15.9594 12.6628 16.0294 12.9594C12.5559 12.7903 9.47884 11.182 7.4179 8.7387C7.05917 9.33695 6.85289 10.0306 6.85289 10.7693C6.85289 12.1704 7.59099 13.4076 8.71115 14.1316C8.02596 14.1099 7.38203 13.9287 6.81881 13.6261V13.6781C6.81881 15.635 8.25824 17.2676 10.1703 17.6387C9.81874 17.7306 9.45014 17.7791 9.06988 17.7791C8.80083 17.7791 8.53806 17.7548 8.28335 17.708C8.81518 19.312 10.3577 20.4808 12.1864 20.512C10.7559 21.5958 8.95419 22.2417 6.99728 22.2417C6.66007 22.2417 6.32734 22.2226 6 22.1853C7.84928 23.3324 10.0447 24 12.4034 24C20.0893 24 24.291 17.8459 24.291 12.5085C24.291 12.3351 24.2866 12.16 24.2785 11.9866C25.0946 11.4161 25.8031 10.706 26.3618 9.89704L26.3636 9.89444Z" fill="white"/>
<defs>
<linearGradient id="paint0_linear_378_1661" x1="-1.06171e-07" y1="2" x2="27.5" y2="30.5" gradientUnits="userSpaceOnUse">
<stop stop-color="#5C9DFF"/>
<stop offset="1" stop-color="#D49EFF"/>
</linearGradient>
</defs>
</svg>
