<svg width="32" height="32" viewBox="0 0 32 32" fill="none" xmlns="http://www.w3.org/2000/svg">
<circle cx="16" cy="16" r="16" fill="url(#paint0_linear_378_1658)"/>
<path d="M25.2147 12.0051C24.9937 11.2206 24.382 10.6054 23.594 10.3879C22.1431 10 16.3104 10 16.3104 10C16.3104 10 10.4888 9.99071 9.02276 10.3879C8.23886 10.606 7.62419 11.2206 7.40554 12.0051C7.13048 13.4921 6.99382 14.9971 7.00021 16.509C6.99731 18.0111 7.13338 19.5138 7.40554 20.9914C7.62419 21.7759 8.23886 22.3911 9.02276 22.6121C10.4737 23 16.3104 23 16.3104 23C16.3104 23 22.1286 23 23.594 22.6121C24.382 22.3911 24.9937 21.7765 25.2147 20.9914C25.4816 19.5138 25.6119 18.0111 25.6026 16.509C25.6119 14.9971 25.4846 13.4921 25.2147 12.0051ZM14.4472 19.2928V13.7131L19.3024 16.509L14.4472 19.2928Z" fill="white"/>
<defs>
<linearGradient id="paint0_linear_378_1658" x1="-1.06171e-07" y1="2" x2="27.5" y2="30.5" gradientUnits="userSpaceOnUse">
<stop stop-color="#5C9DFF"/>
<stop offset="1" stop-color="#D49EFF"/>
</linearGradient>
</defs>
</svg>
