<svg width="14" height="14" viewBox="0 0 14 14" fill="none" xmlns="http://www.w3.org/2000/svg">
<path d="M7.00008 5.8335C7.32224 5.8335 7.58341 6.09467 7.58341 6.41683V9.91683C7.58341 10.2389 7.32224 10.5002 7.00008 10.5002C6.67792 10.5002 6.41675 10.2389 6.41675 9.91683V6.41683C6.41675 6.09467 6.67792 5.8335 7.00008 5.8335Z" fill="#151522"/>
<path d="M7.00009 4.95722C7.48272 4.95722 7.87397 4.56597 7.87397 4.08334C7.87397 3.60071 7.48272 3.20947 7.00009 3.20947C6.51746 3.20947 6.12622 3.60071 6.12622 4.08334C6.12622 4.56597 6.51746 4.95722 7.00009 4.95722Z" fill="#151522"/>
<path d="M0 7C0 3.134 3.134 0 7 0C10.866 0 14 3.134 14 7C14 10.866 10.866 14 7 14C3.134 14 0 10.866 0 7ZM7 1.16667C3.77834 1.16667 1.16667 3.77834 1.16667 7C1.16667 10.2216 3.77834 12.8333 7 12.8333C10.2216 12.8333 12.8333 10.2216 12.8333 7C12.8333 3.77834 10.2216 1.16667 7 1.16667Z" fill="#151522"/>
</svg>
